# xmcd
#
# Track frame offsets:
#	182
#	19157
#	30502
#	50332
#	66807
#	84352
#	100147
#	115997
#	132930
#	151457
#
# Disc length: 2255 seconds
#
# Revision: 1
# Processed by: cddbd v1.5.1PL0 Copyright (c) Steve Scherf et al.
# Submitted via: EasyCDDAExtractor 7.7.1.2
#
DISCID=7808cd0a
DTITLE=Kenny Rogers - Kenny Rogers And Friends
DYEAR=1999
DGENRE=Country
TTITLE0=Islands In The Stream (with Dolly Parton)
TTITLE1=Love Is Just Around The Corner (backing vocals by Take 6)
TTITLE2=What About Me (with Kim Carnes and James Ingram)
TTITLE3=If I Ever Fall In Love Again (with Anne Murray)
TTITLE4=If I Knew Then What I Know Now (with Gladys Knight)
TTITLE5=Love Is Strange (with Dolly Parton)
TTITLE6=Maybe (with Holly Dunn)
TTITLE7=Don't Fall In Love With A Dreamer (with Kim Carnes)
TTITLE8=I Don't Want To Know Why (with Cindy Fee)
TTITLE9=Make No Mistake, She's Mine (with Ronnie Milsap)
EXTD=YEAR: 1999
EXTT0=
EXTT1=
EXTT2=
EXTT3=
EXTT4=
EXTT5=
EXTT6=
EXTT7=
EXTT8=
EXTT9=
PLAYORDER=
